<svg width="25" height="24" viewBox="0 0 25 24" fill="none" xmlns="http://www.w3.org/2000/svg">
<g clip-path="url(#clip0_239_210)">
<path d="M12.2501 20.9996C17.2207 20.9996 21.2501 16.9702 21.2501 11.9996C21.2501 7.02907 17.2207 2.99963 12.2501 2.99963C7.27956 2.99963 3.25012 7.02907 3.25012 11.9996C3.25012 16.9702 7.27956 20.9996 12.2501 20.9996Z" fill="#1977F3"/>
<path d="M15.7534 14.6019L16.1521 11.9997H13.6562V10.3113C13.6562 9.60005 14.0043 8.90521 15.1231 8.90521H16.2584V6.69033C16.2584 6.69033 15.2282 6.5144 14.2435 6.5144C12.1881 6.5144 10.844 7.7598 10.844 10.0164V11.9997H8.55823V14.6019H10.844V20.8909C11.3021 20.963 11.7717 20.9997 12.2501 20.9997C12.7285 20.9997 13.1981 20.9617 13.6562 20.8909V14.6019H15.7534Z" fill="white"/>
</g>
<defs>
<clipPath id="clip0_239_210">
<rect width="18" height="18" fill="white" transform="translate(3.25 3)"/>
</clipPath>
</defs>
</svg>