<svg width="120" height="120" viewBox="0 0 120 120" fill="none" xmlns="http://www.w3.org/2000/svg">
<mask id="mask0_2809_17907" style="mask-type:alpha" maskUnits="userSpaceOnUse" x="0" y="0" width="120" height="120">
<circle cx="60" cy="60" r="60" fill="#D9D9D9"/>
</mask>
<g mask="url(#mask0_2809_17907)">
<rect width="120" height="120" fill="#1B1B1B"/>
<mask id="mask1_2809_17907" style="mask-type:alpha" maskUnits="userSpaceOnUse" x="16" y="10" width="88" height="88">
<rect x="16" y="10" width="88" height="88" fill="#D9D9D9"/>
</mask>
<g mask="url(#mask1_2809_17907)">
<path d="M45.7562 46.384L60.846 21.5634L75.9358 46.384H45.7562ZM81.0127 86.7173C77.1815 86.7173 73.9438 85.3952 71.2995 82.751C68.6553 80.1067 67.3332 76.869 67.3332 73.0378C67.3332 69.2066 68.6553 65.9689 71.2995 63.3246C73.9438 60.6804 77.1815 59.3583 81.0127 59.3583C84.8439 59.3583 88.0816 60.6804 90.7259 63.3246C93.3701 65.9689 94.6922 69.2066 94.6922 73.0378C94.6922 76.869 93.3701 80.1067 90.7259 82.751C88.0816 85.3952 84.8439 86.7173 81.0127 86.7173ZM30.6665 84.884V61.1916H54.3589V84.884H30.6665ZM81.0107 83.0507C83.8137 83.0507 86.1836 82.0829 88.1203 80.1475C90.0571 78.212 91.0255 75.8428 91.0255 73.0398C91.0255 70.2368 90.0578 67.8669 88.1223 65.9302C86.1869 63.9934 83.8177 63.025 81.0147 63.025C78.2117 63.025 75.8418 63.9927 73.905 65.9282C71.9682 67.8636 70.9998 70.2328 70.9998 73.0358C70.9998 75.8389 71.9676 78.2087 73.903 80.1455C75.8385 82.0823 78.2077 83.0507 81.0107 83.0507ZM34.3332 81.2173H50.6922V64.8583H34.3332V81.2173ZM52.1447 42.7173H69.5473L60.846 28.7699L52.1447 42.7173Z" fill="#424242"/>
</g>
</g>
</svg>
