<svg width="25" height="24" viewBox="0 0 25 24" fill="none" xmlns="http://www.w3.org/2000/svg">
<g clip-path="url(#clip0_239_201)">
<path d="M21.5448 11.946C21.5448 11.2081 21.4849 10.6697 21.3553 10.1113H12.9295V13.4417H17.8753C17.7756 14.2693 17.2371 15.5158 16.0405 16.3533L16.0238 16.4648L18.6879 18.5287L18.8724 18.5471C20.5676 16.9816 21.5448 14.6782 21.5448 11.946Z" fill="#4285F4"/>
<path d="M12.9295 20.7208C15.3525 20.7208 17.3867 19.9231 18.8725 18.5471L16.0406 16.3533C15.2827 16.8818 14.2656 17.2507 12.9295 17.2507C10.5563 17.2507 8.5421 15.6853 7.82409 13.5215L7.71884 13.5304L4.94867 15.6743L4.91245 15.775C6.3882 18.7066 9.41952 20.7208 12.9295 20.7208Z" fill="#34A853"/>
<path d="M7.82408 13.5215C7.63462 12.9631 7.52498 12.3648 7.52498 11.7466C7.52498 11.1283 7.63462 10.5301 7.81411 9.97166L7.80909 9.85274L5.00421 7.67444L4.91243 7.71809C4.3042 8.93462 3.9552 10.3007 3.9552 11.7466C3.9552 13.1924 4.3042 14.5585 4.91243 15.775L7.82408 13.5215Z" fill="#FBBC05"/>
<path d="M12.9295 6.24231C14.6146 6.24231 15.7514 6.97022 16.3995 7.57852L18.9323 5.10559C17.3768 3.65974 15.3525 2.77228 12.9295 2.77228C9.41952 2.77228 6.3882 4.78649 4.91245 7.71807L7.81412 9.97164C8.5421 7.80785 10.5563 6.24231 12.9295 6.24231Z" fill="#EB4335"/>
</g>
<defs>
<clipPath id="clip0_239_201">
<rect width="17.5896" height="18" fill="white" transform="translate(3.9552 2.74658)"/>
</clipPath>
</defs>
</svg>
