<svg width="24" height="24" viewBox="0 0 24 24" fill="none" xmlns="http://www.w3.org/2000/svg">
<g clip-path="url(#clip0_68_605)">
<g clip-path="url(#clip1_68_605)">
<path d="M22.7256 0.0734863L13.3805 7.20128L15.0796 3.01278L22.7256 0.0734863Z" fill="#E17726" stroke="#E17726" stroke-width="0.25" stroke-linecap="round" stroke-linejoin="round"/>
<path d="M1.27429 0.0734863L10.4778 7.27476L8.84951 3.01278L1.27429 0.0734863Z" fill="#E27625" stroke="#E27625" stroke-width="0.25" stroke-linecap="round" stroke-linejoin="round"/>
<path d="M19.3983 16.6805L16.9204 20.5751L22.2301 22.1182L23.7169 16.754L19.3983 16.6805Z" fill="#E27625" stroke="#E27625" stroke-width="0.25" stroke-linecap="round" stroke-linejoin="round"/>
<path d="M0.283203 16.754L1.76993 22.1182L7.07966 20.5751L4.60179 16.6805L0.283203 16.754Z" fill="#E27625" stroke="#E27625" stroke-width="0.25" stroke-linecap="round" stroke-linejoin="round"/>
<path d="M6.79642 9.99361L5.30969 12.2716L10.5486 12.492L10.407 6.61342L6.79642 9.99361Z" fill="#E27625" stroke="#E27625" stroke-width="0.25" stroke-linecap="round" stroke-linejoin="round"/>
<path d="M17.2035 9.99361L13.5221 6.61342L13.3805 12.5655L18.6194 12.345L17.2035 9.99361Z" fill="#E27625" stroke="#E27625" stroke-width="0.25" stroke-linecap="round" stroke-linejoin="round"/>
<path d="M7.07959 20.5751L10.2654 18.9585L7.50437 16.754L7.07959 20.5751Z" fill="#E27625" stroke="#E27625" stroke-width="0.25" stroke-linecap="round" stroke-linejoin="round"/>
<path d="M13.7345 18.9585L16.9203 20.5751L16.4956 16.754L13.7345 18.9585Z" fill="#E27625" stroke="#E27625" stroke-width="0.25" stroke-linecap="round" stroke-linejoin="round"/>
<path d="M16.9203 20.5751L13.7345 18.9585L14.0177 21.0895V21.9712L16.9203 20.5751Z" fill="#D5BFB2" stroke="#D5BFB2" stroke-width="0.25" stroke-linecap="round" stroke-linejoin="round"/>
<path d="M7.07959 20.5751L10.053 22.0447V21.1629L10.3362 19.032L7.07959 20.5751Z" fill="#D5BFB2" stroke="#D5BFB2" stroke-width="0.25" stroke-linecap="round" stroke-linejoin="round"/>
<path d="M10.0531 15.3578L7.43359 14.5495L9.2743 13.6677L10.0531 15.3578Z" fill="#233447" stroke="#233447" stroke-width="0.25" stroke-linecap="round" stroke-linejoin="round"/>
<path d="M13.8761 15.3578L14.6549 13.6677L16.4956 14.5495L13.8761 15.3578Z" fill="#233447" stroke="#233447" stroke-width="0.25" stroke-linecap="round" stroke-linejoin="round"/>
<path d="M7.07968 20.5751L7.50446 16.6805L4.60181 16.754L7.07968 20.5751Z" fill="#CC6228" stroke="#CC6228" stroke-width="0.25" stroke-linecap="round" stroke-linejoin="round"/>
<path d="M16.4248 16.6805L16.8496 20.5751L19.3275 16.754L16.4248 16.6805Z" fill="#CC6228" stroke="#CC6228" stroke-width="0.25" stroke-linecap="round" stroke-linejoin="round"/>
<path d="M18.6902 12.345L13.4513 12.5655L13.9469 15.3578L14.7256 13.6677L16.5663 14.5495L18.6902 12.345Z" fill="#CC6228" stroke="#CC6228" stroke-width="0.25" stroke-linecap="round" stroke-linejoin="round"/>
<path d="M7.43359 14.5495L9.27429 13.6677L10.0531 15.3578L10.5486 12.5655L5.30969 12.345L7.43359 14.5495Z" fill="#CC6228" stroke="#CC6228" stroke-width="0.25" stroke-linecap="round" stroke-linejoin="round"/>
<path d="M5.30969 12.345L7.50438 16.8275L7.43359 14.623L5.30969 12.345Z" fill="#E27525" stroke="#E27525" stroke-width="0.25" stroke-linecap="round" stroke-linejoin="round"/>
<path d="M16.5664 14.5495L16.4956 16.754L18.6903 12.2716L16.5664 14.5495Z" fill="#E27525" stroke="#E27525" stroke-width="0.25" stroke-linecap="round" stroke-linejoin="round"/>
<path d="M10.5487 12.5655L10.0531 15.3578L10.6903 18.6645L10.8319 14.3291L10.5487 12.5655Z" fill="#E27525" stroke="#E27525" stroke-width="0.25" stroke-linecap="round" stroke-linejoin="round"/>
<path d="M13.3805 12.5655L13.0973 14.3291L13.2389 18.6645L13.8761 15.3578L13.3805 12.5655Z" fill="#E27525" stroke="#E27525" stroke-width="0.25" stroke-linecap="round" stroke-linejoin="round"/>
<path d="M13.8761 15.3578L13.2389 18.6645L13.6637 18.9585L16.4247 16.754L16.4955 14.5495L13.8761 15.3578Z" fill="#F5841F" stroke="#F5841F" stroke-width="0.25" stroke-linecap="round" stroke-linejoin="round"/>
<path d="M7.43359 14.5495L7.50439 16.754L10.2655 18.9585L10.6902 18.6645L10.0531 15.3578L7.43359 14.5495Z" fill="#F5841F" stroke="#F5841F" stroke-width="0.25" stroke-linecap="round" stroke-linejoin="round"/>
<path d="M13.9468 22.0447V21.1629L13.7345 20.9425H10.1946L9.98224 21.1629V22.0447L7.07959 20.5751L8.14154 21.4569L10.1946 22.9265H13.8053L15.9291 21.4569L16.9203 20.5751L13.9468 22.0447Z" fill="#C0AC9D" stroke="#C0AC9D" stroke-width="0.25" stroke-linecap="round" stroke-linejoin="round"/>
<path d="M13.7345 18.9585L13.3097 18.6645H10.6903L10.2655 18.9585L9.9823 21.0895L10.1947 20.869H13.7345L13.9469 21.0895L13.7345 18.9585Z" fill="#161616" stroke="#161616" stroke-width="0.25" stroke-linecap="round" stroke-linejoin="round"/>
<path d="M23.0796 7.71566L23.8584 3.74761L22.6549 0.0734863L13.7345 6.98083L17.2035 9.99361L22.0885 11.4633L23.1504 10.1406L22.6549 9.84665L23.4336 9.11182L22.8672 8.67093L23.646 8.08307L23.0796 7.71566Z" fill="#763E1A" stroke="#763E1A" stroke-width="0.25" stroke-linecap="round" stroke-linejoin="round"/>
<path d="M0.0708008 3.74761L0.849562 7.71566L0.353987 8.08307L1.13275 8.67093L0.566376 9.11182L1.34514 9.84665L0.849562 10.2141L1.91151 11.5367L6.79646 10.0671L10.2655 7.05432L1.27434 0.0734863L0.0708008 3.74761Z" fill="#763E1A" stroke="#763E1A" stroke-width="0.25" stroke-linecap="round" stroke-linejoin="round"/>
<path d="M22.0885 11.4633L17.2036 9.99361L18.6903 12.2716L16.4956 16.754L19.3983 16.6805H23.7168L22.0885 11.4633Z" fill="#F5841F" stroke="#F5841F" stroke-width="0.25" stroke-linecap="round" stroke-linejoin="round"/>
<path d="M6.79648 9.99361L1.91152 11.4633L0.283203 16.6805H4.60179L7.50444 16.754L5.30975 12.2716L6.79648 9.99361Z" fill="#F5841F" stroke="#F5841F" stroke-width="0.25" stroke-linecap="round" stroke-linejoin="round"/>
<path d="M13.3806 12.5655L13.6638 6.98084L15.0797 3.01279H8.77881L10.1947 6.98084L10.4779 12.5655L10.6195 14.3291V18.6645H13.239V14.3291L13.3806 12.5655Z" fill="#F5841F" stroke="#F5841F" stroke-width="0.25" stroke-linecap="round" stroke-linejoin="round"/>
</g>
</g>
<defs>
<clipPath id="clip0_68_605">
<rect width="24" height="24" fill="white"/>
</clipPath>
<clipPath id="clip1_68_605">
<rect width="24" height="23" fill="white"/>
</clipPath>
</defs>
</svg>
