<svg width="24" height="24" viewBox="0 0 24 24" fill="none" xmlns="http://www.w3.org/2000/svg">
<g clip-path="url(#clip0_68_607)">
<path d="M24 12C24 5.37258 18.6274 0 12 0C5.37258 0 0 5.37258 0 12C0 18.6274 5.37258 24 12 24C18.6274 24 24 18.6274 24 12Z" fill="white"/>
<path d="M7.8206 9.6499C10.0675 7.45003 13.7103 7.45003 15.9572 9.6499L16.2276 9.91465C16.34 10.0246 16.34 10.203 16.2276 10.313L15.3026 11.2187C15.2464 11.2737 15.1553 11.2737 15.0992 11.2187L14.727 10.8543C13.1596 9.31964 10.6182 9.31964 9.05075 10.8543L8.65224 11.2445C8.59607 11.2995 8.50499 11.2995 8.44882 11.2445L7.52379 10.3388C7.41145 10.2288 7.41145 10.0505 7.52379 9.94049L7.8206 9.6499ZM17.8702 11.5229L18.6935 12.329C18.8059 12.439 18.8059 12.6173 18.6935 12.7273L14.9813 16.3619C14.869 16.4719 14.6868 16.4719 14.5745 16.362C14.5745 16.3619 14.5745 16.3619 14.5745 16.3619L11.9398 13.7823C11.9117 13.7548 11.8661 13.7548 11.8381 13.7823C11.8381 13.7823 11.8381 13.7823 11.8381 13.7823L9.20341 16.3619C9.09107 16.4719 8.90892 16.4719 8.79658 16.362C8.79658 16.362 8.79658 16.3619 8.79658 16.3619L5.08426 12.7273C4.97191 12.6173 4.97191 12.4389 5.08426 12.329L5.90754 11.5229C6.01988 11.4129 6.20202 11.4129 6.31437 11.5229L8.94911 14.1025C8.9772 14.13 9.02273 14.13 9.05082 14.1025C9.05082 14.1025 9.05082 14.1025 9.05082 14.1025L11.6854 11.5229C11.7978 11.4129 11.9799 11.4129 12.0923 11.5229C12.0923 11.5229 12.0923 11.5229 12.0923 11.5229L14.727 14.1025C14.7551 14.13 14.8006 14.13 14.8287 14.1025L17.4634 11.5229C17.5758 11.4129 17.7579 11.4129 17.8702 11.5229Z" fill="#3B99FC"/>
</g>
<defs>
<clipPath id="clip0_68_607">
<rect width="24" height="24" fill="white"/>
</clipPath>
</defs>
</svg>
